<?xml version="1.0" standalone="no"?>
<!DOCTYPE svg PUBLIC "-//W3C//DTD SVG 20010904//EN" "http://www.w3.org/TR/2001/REC-SVG-20010904/DTD/svg10.dtd">
<!-- Created using Krita: https://krita.org -->
<svg xmlns="http://www.w3.org/2000/svg" 
    xmlns:xlink="http://www.w3.org/1999/xlink"
    xmlns:krita="http://krita.org/namespaces/svg/krita"
    xmlns:sodipodi="http://sodipodi.sourceforge.net/DTD/sodipodi-0.dtd"
    width="2250pt"
    height="2250pt"
    viewBox="0 0 2250 2250">
<defs/>
<path id="shape0" transform="matrix(0.928743049704282 -0.370724085575795 0.370724085575795 0.928743049704282 -162.50493627136 497.105266353232)" fill="#262626" fill-opacity="0.152941176470588" fill-rule="evenodd" stroke="#000000" stroke-opacity="0" stroke-width="0" stroke-linecap="square" stroke-linejoin="bevel" d="M1282.91 1683.58L793.064 1683.58L793.064 1682.98L683.538 1682.98L682.259 1682.95L681.014 1682.85L679.804 1682.68L678.628 1682.45L677.488 1682.16L676.386 1681.8L675.32 1681.39L674.293 1680.91L673.305 1680.38L672.357 1679.8L671.449 1679.16L670.583 1678.46L669.759 1677.72L668.978 1676.93L668.24 1676.08L667.547 1675.19L666.899 1674.26L666.297 1673.28L665.741 1672.25L665.233 1671.19L664.774 1670.08L664.363 1668.94L664.002 1667.76L663.692 1666.54L663.433 1665.29L663.227 1664.01L663.073 1662.69L662.973 1661.35L662.927 1659.97L662.936 1658.57L663.002 1657.14L663.124 1655.69L663.303 1654.21L663.541 1652.72L663.838 1651.2L664.195 1649.66L664.612 1648.11L816.108 1119.86L816.469 1118.66L816.86 1117.47L817.28 1116.29L817.73 1115.12L818.207 1113.97L818.712 1112.83L819.243 1111.7L819.8 1110.59L820.383 1109.49L820.99 1108.4L821.621 1107.33L822.275 1106.28L822.951 1105.25L823.648 1104.23L824.367 1103.23L825.106 1102.26L825.864 1101.3L826.64 1100.36L827.435 1099.44L828.247 1098.55L829.076 1097.67L829.92 1096.82L830.779 1096L831.653 1095.2L832.54 1094.42L833.44 1093.67L834.352 1092.95L835.276 1092.25L836.211 1091.58L837.155 1090.94L838.109 1090.33L839.071 1089.74L840.041 1089.19L841.018 1088.67L842.002 1088.18L842.991 1087.72L843.985 1087.3L844.983 1086.91L845.985 1086.55L846.989 1086.23L847.996 1085.94L849.003 1085.69L850.012 1085.48L851.02 1085.3L852.027 1085.16L853.033 1085.06L854.036 1085L855.036 1084.98L1063.57 1084.98L1064.85 1085.02L1066.1 1085.12L1067.31 1085.29L1068.48 1085.52L1068.75 1085.58L1111.43 1085.58L1112.43 1085.6L1113.43 1085.66L1114.44 1085.75L1115.44 1085.88L1116.45 1086.04L1117.45 1086.24L1118.46 1086.47L1119.47 1086.74L1120.47 1087.03L1121.47 1087.37L1122.47 1087.73L1123.47 1088.12L1124.46 1088.55L1125.45 1089L1126.43 1089.49L1127.41 1090L1128.38 1090.55L1129.34 1091.12L1130.3 1091.72L1131.24 1092.34L1132.18 1092.99L1133.11 1093.67L1134.03 1094.37L1134.94 1095.1L1135.84 1095.85L1136.72 1096.63L1137.59 1097.43L1138.45 1098.25L1139.3 1099.09L1140.13 1099.96L1140.95 1100.84L1141.75 1101.75L1142.53 1102.68L1143.3 1103.62L1144.05 1104.59L1144.78 1105.57L1145.5 1106.57L1146.19 1107.58L1146.86 1108.62L1147.52 1109.67L1148.15 1110.73L1148.76 1111.81L1149.35 1112.9L1149.91 1114.01L1150.45 1115.13L1150.97 1116.26L1151.46 1117.41L1151.93 1118.57L1152.37 1119.73L1152.79 1120.91L1153.17 1122.1L1153.53 1123.3L1303.38 1645.87L1303.8 1647.42L1304.16 1648.96L1304.47 1650.48L1304.73 1651.99L1304.92 1653.47L1305.07 1654.93L1305.16 1656.37L1305.2 1657.79L1305.19 1659.18L1305.13 1660.55L1305.02 1661.89L1304.86 1663.2L1304.65 1664.48L1304.39 1665.74L1304.08 1666.96L1303.73 1668.14L1303.33 1669.3L1302.89 1670.41L1302.4 1671.49L1301.86 1672.54L1301.29 1673.54L1300.67 1674.51L1300 1675.43L1299.3 1676.31L1298.56 1677.14L1297.77 1677.93L1296.94 1678.68L1296.08 1679.37L1295.18 1680.02L1294.24 1680.62L1293.26 1681.17L1292.25 1681.66L1291.2 1682.1L1290.11 1682.49L1289 1682.82L1287.84 1683.09L1286.66 1683.3L1285.44 1683.46L1284.19 1683.55L1282.91 1683.58M673.091 437.93L1162.94 437.93L1162.94 438.541L1272.46 438.541L1273.71 438.573L1274.92 438.671L1276.1 438.831L1277.25 439.054L1278.37 439.337L1279.45 439.68L1280.49 440.081L1281.5 440.538L1282.47 441.051L1283.4 441.617L1284.29 442.237L1285.15 442.907L1285.97 443.628L1286.74 444.397L1287.48 445.214L1288.17 446.077L1288.82 446.984L1289.43 447.935L1289.99 448.927L1290.51 449.961L1290.98 451.033L1291.41 452.144L1291.79 453.292L1292.12 454.475L1292.4 455.691L1292.64 456.941L1292.83 458.222L1292.96 459.533L1293.05 460.873L1293.08 462.24L1293.06 463.633L1292.99 465.051L1292.86 466.492L1292.68 467.955L1292.44 469.44L1292.15 470.943L1291.8 472.465L1291.39 474.003L1139.89 1011.19L1139.53 1012.41L1139.14 1013.62L1138.72 1014.82L1138.27 1016L1137.8 1017.18L1137.29 1018.34L1136.76 1019.48L1136.2 1020.62L1135.62 1021.74L1135.01 1022.84L1134.38 1023.92L1133.73 1024.99L1133.05 1026.05L1132.35 1027.08L1131.64 1028.09L1130.9 1029.09L1130.14 1030.06L1129.36 1031.02L1128.57 1031.95L1127.76 1032.86L1126.93 1033.75L1126.08 1034.61L1125.22 1035.45L1124.35 1036.27L1123.46 1037.06L1122.56 1037.82L1121.65 1038.55L1120.73 1039.26L1119.79 1039.94L1118.85 1040.6L1117.89 1041.22L1116.93 1041.81L1115.96 1042.37L1114.98 1042.9L1114 1043.4L1113.01 1043.87L1112.02 1044.3L1111.02 1044.7L1110.02 1045.06L1109.01 1045.39L1108.01 1045.68L1107 1045.93L1105.99 1046.15L1104.98 1046.33L1103.98 1046.47L1102.97 1046.57L1101.97 1046.63L1100.97 1046.65L892.428 1046.65L891.183 1046.62L889.969 1046.52L888.788 1046.36L887.64 1046.14L887.26 1046.04L844.569 1046.04L843.571 1046.02L842.569 1045.97L841.566 1045.87L840.561 1045.74L839.554 1045.58L838.548 1045.38L837.541 1045.14L836.536 1044.87L835.532 1044.57L834.53 1044.23L833.531 1043.86L832.534 1043.46L831.542 1043.03L830.555 1042.57L829.572 1042.07L828.596 1041.55L827.625 1041L826.662 1040.42L825.706 1039.81L824.759 1039.17L823.82 1038.51L822.891 1037.82L821.972 1037.1L821.063 1036.36L820.166 1035.6L819.281 1034.81L818.408 1034L817.549 1033.16L816.703 1032.3L815.872 1031.42L815.056 1030.52L814.255 1029.6L813.47 1028.66L812.703 1027.7L811.953 1026.72L811.221 1025.72L810.507 1024.7L809.813 1023.67L809.139 1022.62L808.486 1021.55L807.854 1020.47L807.243 1019.37L806.655 1018.26L806.09 1017.13L805.548 1016L805.031 1014.84L804.539 1013.68L804.072 1012.5L803.631 1011.31L803.217 1010.12L802.83 1008.91L802.472 1007.69L652.622 476.281L652.212 474.739L651.856 473.212L651.552 471.701L651.3 470.209L651.1 468.735L650.951 467.281L650.852 465.849L650.803 464.439L650.803 463.052L650.852 461.69L650.948 460.354L651.092 459.044L651.283 457.763L651.519 456.511L651.801 455.289L652.128 454.099L652.499 452.941L652.914 451.817L653.372 450.728L653.872 449.676L654.414 448.66L654.998 447.683L655.621 446.745L656.285 445.848L656.988 444.993L657.73 444.181L658.51 443.412L659.328 442.69L660.182 442.013L661.073 441.384L661.999 440.804L662.961 440.273L663.957 439.794L664.986 439.366L666.049 438.992L667.145 438.673L668.273 438.408L669.432 438.201L670.622 438.051L671.842 437.961L673.091 437.93M1415.46 444.308L1459.73 444.308L1461.12 444.36L1462.48 444.513L1463.81 444.764L1465.11 445.111L1466.38 445.549L1467.62 446.076L1468.82 446.688L1469.98 447.382L1471.09 448.156L1472.16 449.005L1473.18 449.927L1474.15 450.918L1475.06 451.975L1475.92 453.095L1476.71 454.275L1477.45 455.511L1478.11 456.801L1478.71 458.14L1479.24 459.527L1479.7 460.957L1480.08 462.428L1480.38 463.936L1480.59 465.478L1480.73 467.051L1480.77 468.652L1480.77 1659.35L1480.73 1660.95L1480.59 1662.52L1480.38 1664.07L1480.08 1665.57L1479.7 1667.04L1479.24 1668.47L1478.71 1669.86L1478.11 1671.2L1477.45 1672.49L1476.71 1673.73L1475.92 1674.91L1475.06 1676.03L1474.15 1677.08L1473.18 1678.07L1472.16 1679L1471.09 1679.85L1469.98 1680.62L1468.82 1681.31L1467.62 1681.93L1466.38 1682.45L1465.11 1682.89L1463.81 1683.24L1462.48 1683.49L1461.12 1683.64L1459.73 1683.69L1415.46 1683.69L1414.08 1683.64L1412.72 1683.49L1411.39 1683.24L1410.08 1682.89L1408.81 1682.45L1407.58 1681.93L1406.38 1681.31L1405.22 1680.62L1404.11 1679.85L1403.04 1679L1402.02 1678.07L1401.05 1677.08L1400.14 1676.03L1399.28 1674.91L1398.48 1673.73L1397.75 1672.49L1397.08 1671.2L1396.48 1669.86L1395.95 1668.47L1395.5 1667.04L1395.12 1665.57L1394.82 1664.07L1394.6 1662.52L1394.47 1660.95L1394.42 1659.35L1394.42 468.652L1394.47 467.051L1394.6 465.478L1394.82 463.936L1395.12 462.428L1395.5 460.957L1395.95 459.527L1396.48 458.14L1397.08 456.801L1397.75 455.511L1398.48 454.275L1399.28 453.095L1400.14 451.975L1401.05 450.918L1402.02 449.927L1403.04 449.005L1404.11 448.156L1405.22 447.382L1406.38 446.688L1407.58 446.076L1408.81 445.549L1410.08 445.111L1411.39 444.764L1412.72 444.513L1414.08 444.36L1415.46 444.308M344.414 226.051L1610.35 226.051L1611.68 226.081L1613 226.17L1614.31 226.316L1615.6 226.518L1616.87 226.776L1618.13 227.088L1619.37 227.454L1620.59 227.872L1621.79 228.34L1622.98 228.859L1624.14 229.427L1625.27 230.042L1626.39 230.704L1627.48 231.412L1628.54 232.164L1629.58 232.959L1630.59 233.797L1631.57 234.677L1632.53 235.596L1633.45 236.554L1634.34 237.551L1635.2 238.584L1636.03 239.653L1636.83 240.757L1637.59 241.894L1638.31 243.064L1639 244.265L1639.65 245.497L1640.26 246.757L1640.83 248.046L1641.36 249.362L1641.85 250.704L1642.3 252.071L1642.71 253.462L1643.07 254.875L1643.38 256.31L1643.65 257.766L1643.88 259.24L1644.05 260.734L1644.18 262.244L1644.26 263.771L1644.28 265.312L1644.28 371.742L1644.26 373.283L1644.18 374.81L1644.05 376.32L1643.88 377.814L1643.65 379.289L1643.38 380.744L1643.07 382.179L1642.71 383.592L1642.3 384.983L1641.85 386.35L1641.36 387.692L1640.83 389.008L1640.26 390.297L1639.65 391.557L1639 392.789L1638.31 393.99L1637.59 395.16L1636.83 396.297L1636.03 397.401L1635.2 398.47L1634.34 399.503L1633.45 400.5L1632.53 401.458L1631.57 402.377L1630.59 403.257L1629.58 404.095L1628.54 404.89L1627.48 405.642L1626.39 406.35L1625.27 407.012L1624.14 407.627L1622.98 408.195L1621.79 408.714L1620.59 409.182L1619.37 409.6L1618.13 409.966L1616.87 410.278L1615.6 410.536L1614.31 410.738L1613 410.884L1611.68 410.973L1610.35 411.003L344.414 411.003L343.081 410.973L341.762 410.884L340.457 410.738L339.166 410.536L337.892 410.278L336.634 409.966L335.394 409.6L334.172 409.182L332.971 408.714L331.789 408.195L330.63 407.627L329.492 407.012L328.378 406.35L327.289 405.642L326.224 404.89L325.186 404.095L324.175 403.257L323.193 402.377L322.239 401.458L321.315 400.5L320.422 399.503L319.561 398.47L318.733 397.401L317.938 396.297L317.178 395.16L316.454 393.99L315.767 392.789L315.117 391.557L314.505 390.297L313.933 389.008L313.401 387.692L312.911 386.35L312.462 384.983L312.057 383.592L311.696 382.179L311.38 380.744L311.111 379.289L310.888 377.814L310.713 376.32L310.586 374.81L310.51 373.283L310.484 371.742L310.484 265.312L310.51 263.771L310.586 262.244L310.713 260.734L310.888 259.24L311.111 257.766L311.38 256.31L311.696 254.875L312.057 253.462L312.462 252.071L312.911 250.704L313.401 249.362L313.933 248.046L314.505 246.757L315.117 245.497L315.767 244.265L316.454 243.064L317.178 241.894L317.938 240.757L318.733 239.653L319.561 238.584L320.422 237.551L321.315 236.554L322.239 235.596L323.193 234.677L324.175 233.797L325.186 232.959L326.224 232.164L327.289 231.412L328.378 230.704L329.492 230.042L330.63 229.427L331.789 228.859L332.971 228.34L334.172 227.872L335.394 227.454L336.634 227.088L337.892 226.776L339.166 226.518L340.457 226.316L341.762 226.17L343.081 226.081L344.414 226.051M337.586 1714.87L1626.37 1714.87L1627.77 1714.94L1629.14 1715.12L1630.47 1715.42L1631.77 1715.83L1633.03 1716.36L1634.24 1716.98L1635.41 1717.7L1636.52 1718.52L1637.57 1719.43L1638.56 1720.42L1639.49 1721.49L1640.34 1722.64L1641.13 1723.86L1641.83 1725.14L1642.46 1726.49L1643 1727.89L1643.45 1729.35L1643.81 1730.85L1644.07 1732.4L1644.23 1733.98L1644.28 1735.6L1644.28 1887.6L1644.23 1889.22L1644.07 1890.8L1643.81 1892.35L1643.45 1893.85L1643 1895.31L1642.46 1896.71L1641.83 1898.06L1641.13 1899.34L1640.34 1900.56L1639.49 1901.71L1638.56 1902.78L1637.57 1903.77L1636.52 1904.68L1635.41 1905.5L1634.24 1906.22L1633.03 1906.85L1631.77 1907.37L1630.47 1907.78L1629.14 1908.08L1627.77 1908.27L1626.37 1908.33L337.586 1908.33L336.186 1908.27L334.815 1908.08L333.478 1907.78L332.178 1907.37L330.92 1906.85L329.707 1906.22L328.544 1905.5L327.433 1904.68L326.381 1903.77L325.389 1902.78L324.463 1901.71L323.606 1900.56L322.823 1899.34L322.116 1898.06L321.491 1896.71L320.951 1895.31L320.501 1893.85L320.143 1892.35L319.883 1890.8L319.724 1889.22L319.67 1887.6L319.67 1735.6L319.724 1733.98L319.883 1732.4L320.143 1730.85L320.501 1729.35L320.951 1727.89L321.491 1726.49L322.116 1725.14L322.823 1723.86L323.606 1722.64L324.463 1721.49L325.389 1720.42L326.381 1719.43L327.433 1718.52L328.544 1717.7L329.707 1716.98L330.92 1716.36L332.178 1715.83L333.478 1715.42L334.815 1715.12L336.186 1714.94L337.586 1714.87M507.219 435.804L539.977 435.804L541.341 435.849L542.685 435.979L544.007 436.194L545.305 436.49L546.577 436.866L547.821 437.319L549.035 437.847L550.217 438.447L551.365 439.118L552.476 439.856L553.549 440.659L554.582 441.525L555.573 442.453L556.519 443.438L557.419 444.479L558.271 445.574L559.072 446.721L559.821 447.916L560.515 449.158L561.153 450.444L561.732 451.772L562.251 453.139L562.707 454.544L563.098 455.983L563.423 457.455L563.679 458.957L563.865 460.487L563.978 462.043L564.016 463.621L564.016 1655.88L563.978 1657.46L563.865 1659.01L563.679 1660.54L563.423 1662.04L563.098 1663.51L562.707 1664.95L562.251 1666.36L561.732 1667.73L561.153 1669.05L560.515 1670.34L559.821 1671.58L559.072 1672.78L558.271 1673.92L557.419 1675.02L556.519 1676.06L555.573 1677.05L554.582 1677.97L553.549 1678.84L552.476 1679.64L551.365 1680.38L550.217 1681.05L549.035 1681.65L547.821 1682.18L546.577 1682.63L545.305 1683.01L544.007 1683.3L542.685 1683.52L541.341 1683.65L539.977 1683.69L507.219 1683.69L505.855 1683.65L504.511 1683.52L503.189 1683.3L501.89 1683.01L500.618 1682.63L499.374 1682.18L498.16 1681.65L496.979 1681.05L495.831 1680.38L494.72 1679.64L493.646 1678.84L492.614 1677.97L491.623 1677.05L490.677 1676.06L489.777 1675.02L488.925 1673.92L488.124 1672.78L487.375 1671.58L486.681 1670.34L486.043 1669.05L485.464 1667.73L484.945 1666.36L484.489 1664.95L484.097 1663.51L483.772 1662.04L483.516 1660.54L483.331 1659.01L483.218 1657.46L483.18 1655.88L483.18 463.621L483.218 462.043L483.331 460.487L483.516 458.957L483.772 457.455L484.097 455.983L484.489 454.544L484.945 453.139L485.464 451.772L486.043 450.444L486.681 449.158L487.375 447.916L488.124 446.721L488.925 445.574L489.777 444.479L490.677 443.438L491.623 442.453L492.614 441.525L493.646 440.659L494.72 439.856L495.831 439.118L496.979 438.447L498.16 437.847L499.374 437.319L500.618 436.866L501.89 436.49L503.189 436.194L504.511 435.979L505.855 435.849L507.219 435.804"/>
</svg>
