<?xml version="1.0" standalone="no"?>
<!DOCTYPE svg PUBLIC "-//W3C//DTD SVG 20010904//EN" "http://www.w3.org/TR/2001/REC-SVG-20010904/DTD/svg10.dtd">
<!-- Created using Krita: https://krita.org -->
<svg xmlns="http://www.w3.org/2000/svg" 
    xmlns:xlink="http://www.w3.org/1999/xlink"
    xmlns:krita="http://krita.org/namespaces/svg/krita"
    xmlns:sodipodi="http://sodipodi.sourceforge.net/DTD/sodipodi-0.dtd"
    width="2232pt"
    height="2241pt"
    viewBox="0 0 2232 2241">
<defs/>
<path id="shape0" transform="translate(90.0000023452135, 146.371102696686)" fill="#cccccc" fill-rule="evenodd" stroke="#cccccc" stroke-width="22.5" stroke-linecap="square" stroke-linejoin="bevel" d="M0 785.129L988.691 0L1997.38 774.812L1612.36 1950.55L393.661 1948.96L0 785.129"/><rect id="shape1" transform="matrix(0.972249199175402 0 0 0.972249199175402 443.250030343607 2042.18307791095)" fill="#959595" fill-rule="evenodd" stroke="#000000" stroke-opacity="0" stroke-width="0" stroke-linecap="square" stroke-linejoin="bevel" width="1349.19122680804" height="108.000007252242" rx="41.6967664079694" ry="43.509834524667"/><rect id="shape11" transform="matrix(0.321150871007069 0.917676753191787 -0.917676753191787 0.321150871007069 118.7054054876 871.275514634432)" fill="#959595" fill-rule="evenodd" stroke="#000000" stroke-opacity="0" stroke-width="0" stroke-linecap="square" stroke-linejoin="bevel" width="1349.19122680804" height="108.000007252242" rx="41.6967664079694" ry="43.509834524667"/><rect id="shape12" transform="matrix(-0.306939478184537 0.922527279682355 -0.922527279682355 -0.306939478184537 2161.91462129251 891.9507606457)" fill="#959595" fill-rule="evenodd" stroke="#000000" stroke-opacity="0" stroke-width="0" stroke-linecap="square" stroke-linejoin="bevel" width="1349.19122680804" height="108.000007252242" rx="41.6967664079694" ry="43.509834524667"/><rect id="shape13" transform="matrix(-0.76625211873629 0.598436392241049 -0.598436392241049 -0.76625211873629 1161.17992361544 160.376776129228)" fill="#959595" fill-rule="evenodd" stroke="#000000" stroke-opacity="0" stroke-width="0" stroke-linecap="square" stroke-linejoin="bevel" width="1395.57403289166" height="108.000007252242" rx="43.1302274268277" ry="43.509834524667"/><rect id="shape14" transform="matrix(-0.771641558955253 -0.591470798025633 0.591470798025633 -0.771641558955253 2097.51334931658 989.62732341761)" fill="#959595" fill-rule="evenodd" stroke="#000000" stroke-opacity="0" stroke-width="0" stroke-linecap="square" stroke-linejoin="bevel" width="1379.61903225376" height="108.000007252242" rx="42.6371379956048" ry="43.509834524667"/>
</svg>
