<?xml version="1.0" standalone="no"?>
<!DOCTYPE svg PUBLIC "-//W3C//DTD SVG 20010904//EN" "http://www.w3.org/TR/2001/REC-SVG-20010904/DTD/svg10.dtd">
<!-- Created using Krita: https://krita.org -->
<svg xmlns="http://www.w3.org/2000/svg" 
    xmlns:xlink="http://www.w3.org/1999/xlink"
    xmlns:krita="http://krita.org/namespaces/svg/krita"
    xmlns:sodipodi="http://sodipodi.sourceforge.net/DTD/sodipodi-0.dtd"
    width="2304pt"
    height="2304pt"
    viewBox="0 0 2304 2304">
<defs/>
<ellipse id="shape0" transform="matrix(0.999999988840476 0 0 0.999999988840476 1696.50001058896 387.985942394964)" rx="69.75" ry="72" cx="69.75" cy="72" fill="#ffffff" fill-rule="evenodd" stroke="#ffffff" stroke-width="171.81" stroke-linecap="square" stroke-linejoin="bevel"/><ellipse id="shape01" transform="matrix(0.999999988840476 0 0 0.999999988840476 557.999987705736 392.48594143458)" rx="69.75" ry="72" cx="69.75" cy="72" fill="#ffffff" fill-rule="evenodd" stroke="#ffffff" stroke-width="171.81" stroke-linecap="square" stroke-linejoin="bevel"/><ellipse id="shape02" transform="matrix(0.999999957781963 0 0 0.999999957781963 1698.7071812859 949.386935088055)" rx="69.75" ry="72" cx="69.75" cy="72" fill="#ffffff" fill-rule="evenodd" stroke="#ffffff" stroke-width="171.81" stroke-linecap="square" stroke-linejoin="bevel"/><ellipse id="shape01" transform="matrix(0.999999957781963 0 0 0.999999957781963 562.772976565079 961.373887376673)" rx="69.75" ry="72" cx="69.75" cy="72" fill="#ffffff" fill-rule="evenodd" stroke="#ffffff" stroke-width="171.81" stroke-linecap="square" stroke-linejoin="bevel"/><ellipse id="shape03" transform="matrix(0.999999988840476 0 0 0.999999988840476 1697.89313746265 1514.6569359061)" rx="69.75" ry="72" cx="69.75" cy="72" fill="#ffffff" fill-rule="evenodd" stroke="#ffffff" stroke-width="171.81" stroke-linecap="square" stroke-linejoin="bevel"/><ellipse id="shape011" transform="matrix(0.999999988840476 0 0 0.999999988840476 559.124987622082 1525.00239798876)" rx="69.75" ry="72" cx="69.75" cy="72" fill="#ffffff" fill-rule="evenodd" stroke="#ffffff" stroke-width="171.81" stroke-linecap="square" stroke-linejoin="bevel"/>
</svg>
