<?xml version="1.0" standalone="no"?>
<!DOCTYPE svg PUBLIC "-//W3C//DTD SVG 20010904//EN" "http://www.w3.org/TR/2001/REC-SVG-20010904/DTD/svg10.dtd">
<!-- Created using Krita: https://krita.org -->
<svg xmlns="http://www.w3.org/2000/svg" 
    xmlns:xlink="http://www.w3.org/1999/xlink"
    xmlns:krita="http://krita.org/namespaces/svg/krita"
    xmlns:sodipodi="http://sodipodi.sourceforge.net/DTD/sodipodi-0.dtd"
    width="2232pt"
    height="2241pt"
    viewBox="0 0 2232 2241">
<defs/>
<path id="shape0" transform="translate(431.158368384287, 108.187339668382)" fill="#c2c2c2" fill-rule="evenodd" stroke="#000000" stroke-opacity="0" stroke-width="0" stroke-linecap="square" stroke-linejoin="bevel" d="M472.524 0L0 90.6864L518.663 200.465L1345.98 143.189L1190.06 20.6829L472.524 0"/><path id="shape1" transform="translate(36.5927766525409, 198.21093729831)" fill="#cdcdcd" fill-rule="evenodd" stroke="#000000" stroke-opacity="0" stroke-width="0" stroke-linecap="square" stroke-linejoin="bevel" d="M0 687.971L175.009 1314.82L782.767 1010.94L913.03 97.4149L400.751 0"/><path id="shape2" transform="translate(816.178018380587, 250.453143810415)" fill="#b1b1b1" fill-rule="evenodd" stroke="#000000" stroke-opacity="0" stroke-width="0" stroke-linecap="square" stroke-linejoin="bevel" d="M0 957.108L128.87 43.8801L958.931 0L1355.52 783.691L812.996 1404.18L0 957.108"/><path id="shape3" transform="translate(212.765630435101, 1207.56162953385)" fill="#b4b4b4" fill-rule="evenodd" stroke="#000000" stroke-opacity="0" stroke-width="0" stroke-linecap="square" stroke-linejoin="bevel" d="M608.185 0L0 302.751L399.766 840.043L1190.49 938.684L1415.02 446.074L608.185 0"/><path id="shape4" transform="translate(1398.48046424276, 1030.07818078724)" fill="#a8a8a8" fill-rule="evenodd" stroke="#000000" stroke-opacity="0" stroke-width="0" stroke-linecap="square" stroke-linejoin="bevel" d="M0 1112.99L365.928 799.561L781.176 202.939L770.52 0L225.921 627.734L0 1112.99"/>
</svg>
