<?xml version="1.0" standalone="no"?>
<!DOCTYPE svg PUBLIC "-//W3C//DTD SVG 20010904//EN" "http://www.w3.org/TR/2001/REC-SVG-20010904/DTD/svg10.dtd">
<!-- Created using Krita: https://krita.org -->
<svg xmlns="http://www.w3.org/2000/svg" 
    xmlns:xlink="http://www.w3.org/1999/xlink"
    xmlns:krita="http://krita.org/namespaces/svg/krita"
    xmlns:sodipodi="http://sodipodi.sourceforge.net/DTD/sodipodi-0.dtd"
    width="2250pt"
    height="2250pt"
    viewBox="0 0 2250 2250">
<defs/>
<path id="shape0" transform="matrix(0.903395879644451 0 0 0.903395879644451 -1154.32368269607 -707.501453467759)" fill="#ffffff" fill-rule="evenodd" stroke="#ffffff" stroke-width="22.5" stroke-linecap="square" stroke-linejoin="bevel" d="M2547.93 983.697L3553.27 1716.9L3168.88 2907.26L1924.63 2907.64L0 3002.67L4933.25 4144.23L4036.5 0L2547.93 983.697"/><path id="shape1" transform="matrix(0.903395879644451 0 0 0.903395879644451 -625.576075806552 -338.750559517396)" fill="#ffffff" fill-rule="evenodd" stroke="#ffffff" stroke-width="22.5" stroke-linecap="square" stroke-linejoin="bevel" d="M1372.2 2619.19L945.417 1311.53L2771.48 0L0 86.7472L562.878 2591.65L1372.2 2619.19"/><path id="shape2" transform="matrix(0.903395879644451 0 0 0.903395879644451 225.633166656738 173.1474753983)" fill="none" stroke="#808080" stroke-width="54" stroke-linecap="square" stroke-linejoin="bevel" d="M0 738.525L1020.41 0L2030.1 737.914L1645.44 1931.27L391.743 1934.83L0 738.525"/>
</svg>
