<?xml version="1.0" standalone="no"?>
<!DOCTYPE svg PUBLIC "-//W3C//DTD SVG 20010904//EN" "http://www.w3.org/TR/2001/REC-SVG-20010904/DTD/svg10.dtd">
<!-- Created using Krita: https://krita.org -->
<svg xmlns="http://www.w3.org/2000/svg" 
    xmlns:xlink="http://www.w3.org/1999/xlink"
    xmlns:krita="http://krita.org/namespaces/svg/krita"
    xmlns:sodipodi="http://sodipodi.sourceforge.net/DTD/sodipodi-0.dtd"
    width="2232pt"
    height="2241pt"
    viewBox="0 0 2232 2241">
<defs/>
<path id="shape0" transform="translate(227.511603458061, 68.4125800608157)" fill="#d5d5d5" fill-rule="evenodd" stroke="#000000" stroke-opacity="0" stroke-width="0" stroke-linecap="square" stroke-linejoin="bevel" d="M0 785.949L1320.52 873.454L865.499 0L0 785.949"/><path id="shape1" transform="translate(229.102593692034, 70.003572793888)" fill="#e3e3e3" fill-rule="evenodd" stroke="#000000" stroke-opacity="0" stroke-width="0" stroke-linecap="square" stroke-linejoin="bevel" d="M85.9135 529.8L0 787.54L863.51 0L85.9135 529.8"/><path id="shape2" transform="translate(1088.23732003716, 70.0035702947881)" fill="#c2c2c2" fill-rule="evenodd" stroke="#000000" stroke-opacity="0" stroke-width="0" stroke-linecap="square" stroke-linejoin="bevel" d="M0 0L982.039 615.315L457.513 869.934"/><path id="shape3" transform="translate(1543.50000342595, 684.000001518207)" fill="#aeaeae" fill-rule="evenodd" stroke="#000000" stroke-opacity="0" stroke-width="0" stroke-linecap="square" stroke-linejoin="bevel" d="M0 254.25L423 1152L528.75 0L0 254.25"/><path id="shape4" transform="translate(818.962234042987, 937.125025483479)" fill="#b6b6b6" fill-rule="evenodd" stroke="#000000" stroke-opacity="0" stroke-width="0" stroke-linecap="square" stroke-linejoin="bevel" d="M0 1102.52L1147.82 894.797L727.35 0"/><path id="shape5" transform="translate(230.625003914155, 852.750014472826)" fill="#cdcdcd" fill-rule="evenodd" stroke="#000000" stroke-opacity="0" stroke-width="0" stroke-linecap="square" stroke-linejoin="bevel" d="M0 0L590.625 1185.75L1317.94 85.5"/><path id="shape6" transform="translate(130.500000289658, 851.906264458506)" fill="#e6e6e6" fill-rule="evenodd" stroke="#000000" stroke-opacity="0" stroke-width="0" stroke-linecap="square" stroke-linejoin="bevel" d="M697.5 1193.34L0 792.844L102.656 0"/><path id="shape7" transform="translate(818.564486479101, 1830.65628356616)" fill="#959595" fill-rule="evenodd" stroke="#000000" stroke-opacity="0" stroke-width="0" stroke-linecap="square" stroke-linejoin="bevel" d="M268.186 318.094L1146.25 0L0 207.8"/>
</svg>
