<?xml version="1.0" standalone="no"?>
<!DOCTYPE svg PUBLIC "-//W3C//DTD SVG 20010904//EN" "http://www.w3.org/TR/2001/REC-SVG-20010904/DTD/svg10.dtd">
<!-- Created using Krita: https://krita.org -->
<svg xmlns="http://www.w3.org/2000/svg" 
    xmlns:xlink="http://www.w3.org/1999/xlink"
    xmlns:krita="http://krita.org/namespaces/svg/krita"
    xmlns:sodipodi="http://sodipodi.sourceforge.net/DTD/sodipodi-0.dtd"
    width="2232pt"
    height="2241pt"
    viewBox="0 0 2232 2241">
<defs/>
<path id="shape0" transform="translate(227.511603458061, 68.4125800608157)" fill="#bfbfbf" fill-rule="evenodd" stroke="#666666" stroke-width="27" stroke-linecap="square" stroke-linejoin="bevel" d="M0 785.949L1320.52 873.454L865.499 0L0 785.949"/><path id="shape1" transform="translate(229.102593692034, 70.003572793888)" fill="#d9d9d9" fill-rule="evenodd" stroke="#666666" stroke-width="27" stroke-linecap="square" stroke-linejoin="bevel" d="M85.9135 529.8L0 787.54L863.51 0L85.9135 529.8"/><path id="shape2" transform="translate(1106.71877827763, 81.8437520911791)" fill="#999999" fill-rule="evenodd" stroke="#666666" stroke-width="27" stroke-linecap="square" stroke-linejoin="bevel" d="M0 0L970.031 613.406L451.406 848.813"/><path id="shape3" transform="translate(1543.50000342595, 684.000001518207)" fill="#666666" fill-rule="evenodd" stroke="#666666" stroke-width="27" stroke-linecap="square" stroke-linejoin="bevel" d="M0 254.25L419.384 1142.85L528.75 0L0 254.25"/><path id="shape4" transform="translate(818.962234042987, 937.125025483479)" fill="#808080" fill-rule="evenodd" stroke="#666666" stroke-width="27" stroke-linecap="square" stroke-linejoin="bevel" d="M0 1102.52L1147.82 894.797L727.35 0"/><path id="shape5" transform="translate(248.625005081948, 866.531267712083)" fill="#bfbfbf" fill-rule="evenodd" stroke="#666666" stroke-width="27" stroke-linecap="square" stroke-linejoin="bevel" d="M0 0L574.875 1160.72L1287.84 82.6875"/><path id="shape6" transform="translate(130.500000289658, 860.906267597107)" fill="#d9d9d9" fill-rule="evenodd" stroke="#666666" stroke-width="27" stroke-linecap="square" stroke-linejoin="bevel" d="M682.875 1177.59L0 783.844L98.7188 0"/><path id="shape7" transform="translate(818.564486479101, 1830.65628356616)" fill="#666666" fill-rule="evenodd" stroke="#666666" stroke-width="27" stroke-linecap="square" stroke-linejoin="bevel" d="M268.186 318.094L1146.25 0L0 207.8"/><path id="shape8" transform="translate(826.312555730974, 2045.81263798063)" fill="none" stroke="#666666" stroke-width="27" stroke-linecap="square" stroke-linejoin="miter" stroke-miterlimit="2" d="M0 0L247.5 101.813"/>
</svg>
