<?xml version="1.0" standalone="no"?>
<!DOCTYPE svg PUBLIC "-//W3C//DTD SVG 20010904//EN" "http://www.w3.org/TR/2001/REC-SVG-20010904/DTD/svg10.dtd">
<!-- Created using Krita: https://krita.org -->
<svg xmlns="http://www.w3.org/2000/svg" 
    xmlns:xlink="http://www.w3.org/1999/xlink"
    xmlns:krita="http://krita.org/namespaces/svg/krita"
    xmlns:sodipodi="http://sodipodi.sourceforge.net/DTD/sodipodi-0.dtd"
    width="2250pt"
    height="2250pt"
    viewBox="0 0 2250 2250">
<defs/>
<path id="shape0" transform="matrix(1.04815623396744 0 0 1.03272023512306 818.999996055505 -790.514233831963)" fill="#ffffff" fill-rule="evenodd" stroke="#000000" stroke-opacity="0" stroke-width="0" stroke-linecap="square" stroke-linejoin="bevel" d="M1744.61 3332.18L1747.05 0L0 264.364"/><path id="shape1" transform="matrix(1.04815623396744 0 0 1.03272023512306 -283.612367622772 -697.569418498867)" fill="#ffffff" fill-rule="evenodd" stroke="#ffffff" stroke-width="22.5" stroke-linecap="square" stroke-linejoin="bevel" d="M0 3046.5L67.5 0L1442.64 568.711"/><path id="shape2" transform="matrix(1.04815623396744 0 0 1.03272023512306 -282.035976099215 1875.73264070929)" fill="#ffffff" fill-rule="evenodd" stroke="#ffffff" stroke-width="22.5" stroke-linecap="square" stroke-linejoin="bevel" d="M0 3.03811L2725.18 0L2199 1166.73L227.996 626.729L7.49603 1.22911"/><rect id="shape3" transform="matrix(0.519476351976256 0.89696438334862 -0.910371248745401 0.511826121877982 1140.6614319128 12.6660872706783)" fill="#808080" fill-rule="evenodd" stroke="#000000" stroke-opacity="0" stroke-width="0" stroke-linecap="square" stroke-linejoin="bevel" width="2072.94745744054" height="41.601329154797" rx="52.0462002123442" ry="20.8006645773985"/><rect id="shape01" transform="matrix(1.04815102097836 0.00326021767428171 -0.00330894792526558 1.03271509890468 64.635449950748 1837.97091992962)" fill="#808080" fill-rule="evenodd" stroke="#000000" stroke-opacity="0" stroke-width="0" stroke-linecap="square" stroke-linejoin="bevel" width="2043.80968324364" height="43.740768559325" rx="30.7747111063278" ry="21.8703842796625"/><rect id="shape01" transform="matrix(0.516692779374743 -0.898523807119518 0.911953981116928 0.509083542424311 54.5780848224542 1862.18463948571)" fill="#808080" fill-rule="evenodd" stroke="#000000" stroke-opacity="0" stroke-width="0" stroke-linecap="square" stroke-linejoin="bevel" width="2055.86701264542" height="44.8560398315786" rx="37.0452380609837" ry="22.4280199157893"/>
</svg>
